<svg stroke="currentColor" fill="currentColor" stroke-width="0" viewBox="0 0 512 512" height="1em" width="1em" xmlns="http://www.w3.org/2000/svg"><path d="M 118.2 41 c -37.8 0 -68.4 29.3 -68.4 65.5 s 30.6 65.5 68.4 65.5 s 68.4 -29.3 68.4 -65.5 S 156 41 118.2 41 z m 64.1 4 l -5.2 5.3 c 17.8 15.8 22.1 31.6 23.3 47.9 l 7.6 -0.5 c -1.3 -17.3 -6.5 -35.6 -25.8 -52.7 z m 20.8 0.2 l -5.6 5 c 7 7.2 12.2 17.5 13.8 26.1 l 7.5 -1.3 c -1.9 -10.2 -7.6 -21.4 -15.8 -29.7 z M 118.2 88.3 c 11.6 0 21.1 9.1 21.1 20.2 s -9.5 20.2 -21.1 20.2 s -21.1 -9.1 -21.1 -20.2 s 9.5 -20.2 21.1 -20.2 z m 0 14.6 c -3.4 0 -5.9 2.4 -5.9 5.7 s 2.6 5.7 5.9 5.7 s 5.9 -2.4 5.9 -5.7 s -2.6 -5.7 -5.9 -5.7 z M 36 113.1 l -7.6 0.5 c 1.3 17.3 6.5 35.6 25.8 52.7 l 5.2 -5.3 c -17.8 -15.8 -22.1 -31.6 -23.3 -47.9 z m 167.2 17.6 c -5.8 0 -10.5 4.6 -10.5 10.1 c 0 5.1 4 9.3 9.1 10 c 3.3 17.6 -2.7 38.4 -19 53.4 v 9.7 c 22.2 -16.9 30.7 -42.8 26.4 -64.8 c 2.8 -1.8 4.6 -4.9 4.6 -8.3 c 0 -5.5 -4.8 -10.1 -10.5 -10.1 z M 25.1 135.1 l -7.5 1.3 c 1.9 10.2 7.6 21.4 15.8 29.7 l 5.6 -5 c -7 -7.2 -12.2 -17.5 -13.8 -26.1 z M 68 161.1 V 189.1 h 100.4 v -27.9 C 155 172.5 137.4 179.4 118.2 179.4 s -36.8 -6.9 -50.2 -18.2 z M 61.2 196.3 v 27.5 h 113.9 v -27.5 H 61.2 z"></path>
    <rect x="9" y="7" width="0" height="0" fill="rgb(255, 255, 255)"/></svg>
